<?xml version="1.0" encoding="UTF-8"?><svg id="Layer_2" xmlns="http://www.w3.org/2000/svg" viewBox="0 0 390.73 65.61" width="280px" height="auto"><defs><style>.cls-1{fill:#666;}.cls-2{fill:#588b8b;}.cls-3{fill:#b6272d;stroke:#a8a8a8;stroke-linecap:round;stroke-linejoin:round;stroke-width:1.73px;}</style></defs><g id="Layer_5"><g><g><path d="m73.52,32.21c-2.55,0-3.87-.04-5.63-.04-2.29,0-3.52,0-6.33.04l-.13-.4c1.1-.7,1.41-1.76,1.41-2.68V4.07c0-1.06-.66-1.8-1.45-2.2l.26-.53c1.36.04,3.78.04,5.14.04s3.56-.04,5.41-.04c6.29,0,11.17,2.29,11.17,6.99,0,3.56-2.77,5.54-5.76,6.59v.13c4.97,1.01,8.44,3.43,8.44,8.22,0,5.89-5.8,8.92-12.53,8.92Zm-2.29-28c-1.1,0-2.15.04-3.12.09v9.67h2.77c4.53,0,7.03-1.63,7.03-5.06,0-3.17-2.59-4.7-6.68-4.7Zm.79,12.57h-3.91v12.44c1.45.09,3.03.18,4.92.18,4.57,0,7.56-1.98,7.56-6.11,0-4.35-3.25-6.51-8.57-6.51Z"/><path d="m105.51,32.6c-9.14,0-16.75-5.98-16.75-15.34,0-9.85,7.91-16.31,17.01-16.31s16.75,5.98,16.75,15.34c0,9.85-7.91,16.31-17.01,16.31Zm-.04-28.57c-6.73,0-11.03,5.45-11.03,12.88s4.92,12.62,11.39,12.62,11.03-5.45,11.03-12.88-4.92-12.62-11.39-12.62Z"/><path d="m142.59,32.6c-9.14,0-16.75-5.98-16.75-15.34,0-9.85,7.91-16.31,17.01-16.31s16.75,5.98,16.75,15.34c0,9.85-7.91,16.31-17.01,16.31Zm-.04-28.57c-6.73,0-11.03,5.45-11.03,12.88s4.92,12.62,11.39,12.62,11.03-5.45,11.03-12.88-4.92-12.62-11.39-12.62Z"/><path d="m191.77,32.21c-1.23-.04-3.82-.09-5.06-.09-1.32,0-3.82,0-5.06.09l-.09-.4c.66-.31.92-.62.92-1.19,0-.66-.75-1.98-1.54-3.03l-7.12-9.63-3.83,4.62v6.73c0,1.32.62,1.93,1.54,2.51l-.09.4c-1.1-.09-2.81-.09-3.91-.09-.83,0-3.65,0-4.48.09l-.04-.48c.92-.35,1.63-1.14,1.63-2.42V4.47c0-1.32-.31-2.33-1.45-2.68l.13-.44c1.23.09,2.9.09,4.13.09,1.06,0,2.9-.04,3.91-.09l.13.4c-1.01.48-1.5,1.27-1.5,2.86v13.58l10.51-12.79c.88-1.1,1.5-2.11,1.5-2.55,0-.53-.26-.83-.88-1.1l.18-.4c.92.04,2.33.09,3.43.09.75,0,2.95-.04,3.69-.09l.13.4c-1.1.44-2.07,1.23-3.65,3.12l-7.65,9.1,10.81,14.46c1.54,2.07,2.46,2.81,3.82,3.39l-.13.4Z"/><path class="cls-2" d="m230.63,32.21c-1.23-.04-3.3-.09-4.53-.09-1.5,0-3.6,0-5.06.09l-.09-.48c1.54-.57,2.11-1.63,1.93-3.39l-1.41-20.84-9.89,19.25h-1.06l-9.93-19.08-1.41,20.57c-.18,1.98.04,2.59,2.15,3.47l-.13.48c-1.14-.09-3.17-.09-4.35-.09-1.06,0-2.07,0-3.12.09l-.13-.44c1.5-.62,1.93-1.32,2.11-3.25l1.58-23.08c.18-1.98-.4-2.99-1.58-3.65l.09-.44c.35.04,1.5.09,2.37.09,1.54,0,4.79-.04,5.5-.04.22,1.01.92,2.51,3.03,6.64l5.5,10.73,5.28-10.46c1.85-3.6,2.95-5.98,3.12-6.9.62.04,1.89.04,2.9.04,1.19,0,3.65,0,4.66-.09l.13.48c-1.28.44-1.8,1.5-1.63,3.12l1.58,23.08c.18,2.2.66,2.95,2.51,3.69l-.13.48Z"/><path class="cls-2" d="m266.4,32.21c-1.27-.13-3.17-.09-4.79-.09-1.49,0-3.91,0-5.32.09l-.13-.44c.79-.35,1.41-1.14,1.41-1.85,0-.79-.22-1.63-.79-2.95l-3.21-7.21h-9.85l-3.21,6.64c-.66,1.36-.92,2.24-.92,3.17,0,1.19.57,1.58,1.71,2.2l-.13.44c-1.49-.04-3.82-.09-5.32-.09-1.32,0-2.07,0-3.34.09l-.09-.53c1.54-.53,2.64-1.54,3.78-3.82l11.61-23.17c.88-1.76,1.32-3.08,1.32-4.13h1.41l12.27,27.56c.83,1.89,1.89,3.03,3.69,3.65l-.09.44Zm-17.54-23.12l-3.69,7.69h7.08l-3.38-7.69Z"/><path class="cls-2" d="m297.67,32.47c-7.96,0-13.89-5.45-18.16-14.73h-3.52v10.86c0,1.8.53,2.55,1.89,3.12l-.22.48c-1.41-.13-3.21-.09-4.44-.09s-2.64,0-3.91.09l-.18-.4c1.05-.48,1.49-1.41,1.49-2.86V4.51c0-.97-.35-2.11-1.58-2.77l.13-.4c2.2.09,3.87.09,6.07.09,2.33,0,5.93-.04,8.31-.04,6.07,0,10.51,2.81,10.51,7.65,0,4.48-3.43,7.34-8.48,8.31,3.56,8.48,8.44,14.11,13.85,14.11.79,0,1.32,0,1.89-.13l.13.57c-1.05.35-2.29.57-3.78.57Zm-16.22-28.09c-1.98,0-2.9.04-5.45.09v10.24c1.54.04,3.12.04,4.7.04,4.48,0,7.74-1.63,7.74-5.41,0-3.39-2.68-4.97-6.99-4.97Z"/><path class="cls-2" d="m331.96,32.21c-1.23-.04-3.82-.09-5.06-.09-1.32,0-3.82,0-5.06.09l-.09-.4c.66-.31.92-.62.92-1.19,0-.66-.75-1.98-1.54-3.03l-7.12-9.63-3.83,4.62v6.73c0,1.32.62,1.93,1.54,2.51l-.09.4c-1.1-.09-2.81-.09-3.91-.09-.83,0-3.65,0-4.48.09l-.04-.48c.92-.35,1.63-1.14,1.63-2.42V4.47c0-1.32-.31-2.33-1.45-2.68l.13-.44c1.23.09,2.9.09,4.13.09,1.06,0,2.9-.04,3.91-.09l.13.4c-1.01.48-1.5,1.27-1.5,2.86v13.58l10.51-12.79c.88-1.1,1.5-2.11,1.5-2.55,0-.53-.26-.83-.88-1.1l.18-.4c.92.04,2.33.09,3.43.09.75,0,2.95-.04,3.69-.09l.13.4c-1.1.44-2.07,1.23-3.65,3.12l-7.65,9.1,10.81,14.46c1.54,2.07,2.46,2.81,3.82,3.39l-.13.4Z"/><path class="cls-2" d="m355.45,32.21c-3.65-.09-5.32-.09-8.97-.09-4.44,0-7.43,0-11.83.13l-.18-.35c1.01-.62,1.41-1.54,1.41-3.17V4.56c0-1.49-.26-2.33-1.45-2.86l.13-.44c4.31.22,5.89.18,10.2.18,3.96,0,7.69,0,11.65-.22-.44.75-1.58,3.17-1.89,4.09-.48-.53-1.45-.75-4.31-.75h-8.97v8.57h3.3c3.21,0,5.01-.09,6.02-.66l.26.22c-.48.57-1.63,3.17-1.93,4.09-.79-.44-2.46-.53-4.84-.53h-2.81v12.75h7.83c5.71,0,7.43-.97,9.14-2.68l.4.31c-1.1,1.36-2.64,4.35-3.17,5.58Z"/><path class="cls-2" d="m372.79,32.25c-2.64,0-5.98-.09-7.65-.09-1.54,0-2.46.04-4.57.13l-.18-.4c.88-.57,1.41-1.36,1.41-2.95V4.42c0-1.41-.44-2.24-1.45-2.73l.18-.44c1.85.09,2.86.13,3.91.13,2.81,0,6.33-.09,8.53-.09,10.11,0,17.76,5.85,17.76,15.17,0,9.94-7.56,15.78-17.94,15.78Zm-1.01-27.87c-1.89,0-2.55,0-4.62.09v24.53c2.02.13,3.43.18,5.28.18,7.74,0,12.62-3.96,12.62-12.62,0-8.09-5.54-12.18-13.28-12.18Z"/></g><g><path class="cls-1" d="m132.95,45.82c-.12-.33-.26-.59-.4-.75s-.34-.29-.6-.36c-.26-.07-.64-.13-1.14-.17v-.48h6.8v.48c-.67.06-1.15.1-1.45.15s-.5.1-.6.17c-.1.07-.15.17-.15.31,0,.1.02.22.07.38.05.15.12.36.2.61l3.54,10.19h.1l2.55-8.22-.86-2.3c-.12-.33-.26-.59-.4-.75s-.34-.29-.6-.36c-.26-.07-.64-.13-1.14-.17v-.48h6.8v.48c-.67.04-1.15.09-1.45.15s-.49.12-.58.2c-.08.08-.13.19-.13.35,0,.2.08.5.23.92l3.54,10.19h.1l2.95-9.52c.12-.4.19-.74.19-1,0-.36-.15-.64-.46-.83-.31-.19-.86-.34-1.65-.45v-.48h5.88v.48c-.74.11-1.29.25-1.66.42s-.64.39-.83.66-.36.69-.54,1.24l-4.31,13.51h-.48l-4.1-10.94-3.49,10.94h-.48l-5.46-14.56Z"/><path class="cls-1" d="m165.33,59.76v.42h-5.12v-.42l1.57-.29v-6.15c0-.61-.02-1.1-.05-1.45-.04-.36-.1-.65-.2-.87-.26-.64-.81-.96-1.63-.96-.57,0-1.12.11-1.63.34-.52.23-.98.57-1.38,1.01v8.05l1.57.31v.42h-5.15v-.42l1.59-.31v-14.77l-1.55-.56v-.29l3.33-1h.21v7.8c.64-.56,1.33-.99,2.05-1.29.73-.3,1.44-.45,2.13-.45.56,0,1.05.11,1.49.33.43.22.75.53.94.92.11.22.18.52.22.89.03.37.05,1.06.05,2.08v6.36l1.57.29Z"/><path class="cls-1" d="m168.49,53.73c-.01.1-.02.26-.02.48,0,1.53.31,2.69.92,3.47.61.78,1.51,1.17,2.7,1.17.68,0,1.32-.12,1.9-.37s1.06-.59,1.42-1.04l.25-.31.36.21-.13.29c-.36.85-.95,1.52-1.76,2.01-.81.49-1.72.73-2.74.73s-1.87-.23-2.62-.7c-.76-.47-1.35-1.12-1.77-1.97-.42-.84-.63-1.82-.63-2.92,0-1.16.23-2.19.7-3.09s1.12-1.6,1.97-2.09c.84-.49,1.82-.74,2.92-.74,1.37,0,2.42.4,3.15,1.2s1.11,1.98,1.14,3.52l-.15.13h-7.61Zm1.07-3.26c-.56.63-.9,1.52-1.02,2.68l5.46-.19c.04-.17.06-.45.06-.86,0-1.72-.76-2.57-2.28-2.57-.92,0-1.66.31-2.22.94Z"/><path class="cls-1" d="m184.77,49.24c.26.26.39.57.39.93,0,.33-.12.62-.34.85-.23.23-.52.35-.87.35s-.6-.13-.79-.4c-.13-.15-.23-.26-.32-.31s-.2-.08-.32-.08c-.17,0-.31.04-.44.12-.12.08-.26.21-.4.41-.24.32-.39.54-.46.65-.07.11-.12.24-.15.38v7.32l2.09.31v.42h-5.67v-.42l1.59-.31v-8.7l-1.55-.59v-.27l3.24-1.02h.21v2.28c.49-.74.98-1.3,1.47-1.69.5-.39.96-.59,1.39-.59.36,0,.67.13.93.39Z"/><path class="cls-1" d="m188.23,53.73c-.01.1-.02.26-.02.48,0,1.53.31,2.69.92,3.47.61.78,1.51,1.17,2.7,1.17.68,0,1.32-.12,1.9-.37s1.06-.59,1.42-1.04l.25-.31.36.21-.13.29c-.36.85-.95,1.52-1.76,2.01-.81.49-1.72.73-2.74.73s-1.87-.23-2.62-.7c-.76-.47-1.35-1.12-1.77-1.97-.42-.84-.63-1.82-.63-2.92,0-1.16.23-2.19.7-3.09s1.12-1.6,1.97-2.09c.84-.49,1.82-.74,2.92-.74,1.37,0,2.42.4,3.15,1.2s1.11,1.98,1.14,3.52l-.15.13h-7.61Zm1.07-3.26c-.56.63-.9,1.52-1.02,2.68l5.46-.19c.04-.17.06-.45.06-.86,0-1.72-.76-2.57-2.28-2.57-.92,0-1.66.31-2.22.94Z"/><path class="cls-1" d="m205.76,59.42h-.11l-.96.71h-.33v-15.46l-1.53-.56v-.27l3.33-1.03h.21v7.49c.88-.95,1.94-1.42,3.18-1.42.91,0,1.71.22,2.41.67.7.45,1.24,1.07,1.63,1.87.39.8.59,1.72.59,2.75,0,1.16-.24,2.21-.72,3.16s-1.14,1.69-1.99,2.24c-.84.54-1.78.82-2.81.82s-2.04-.32-2.89-.96Zm4.61-.37c.5-.41.88-.99,1.15-1.73.27-.74.41-1.6.41-2.57,0-1.48-.29-2.64-.87-3.48-.58-.84-1.38-1.27-2.39-1.27-.46,0-.89.1-1.29.29-.4.2-.74.46-1.01.79v5.94c0,.79.21,1.43.63,1.91.42.48.97.72,1.65.72s1.23-.21,1.73-.62Z"/><path class="cls-1" d="m224.31,49.62c.84.5,1.5,1.18,1.98,2.06.47.88.71,1.86.71,2.95s-.24,2.07-.71,2.95c-.47.88-1.13,1.57-1.98,2.06s-1.78.74-2.81.74-1.97-.25-2.81-.74-1.5-1.18-1.98-2.06c-.47-.88-.71-1.86-.71-2.95s.24-2.07.71-2.95c.47-.88,1.13-1.57,1.98-2.06.84-.49,1.78-.74,2.81-.74s1.97.25,2.81.74Zm-5.23,8.54c.58.85,1.38,1.28,2.4,1.28s1.84-.43,2.43-1.29.88-2.04.88-3.55-.29-2.66-.87-3.51c-.58-.85-1.38-1.28-2.42-1.28s-1.84.43-2.42,1.28c-.58.85-.87,2.03-.87,3.54s.29,2.68.87,3.54Z"/><path class="cls-1" d="m237.13,49.62c.84.5,1.5,1.18,1.98,2.06.47.88.71,1.86.71,2.95s-.24,2.07-.71,2.95c-.47.88-1.13,1.57-1.98,2.06s-1.78.74-2.81.74-1.97-.25-2.81-.74-1.5-1.18-1.98-2.06c-.47-.88-.71-1.86-.71-2.95s.24-2.07.71-2.95c.47-.88,1.13-1.57,1.98-2.06.84-.49,1.78-.74,2.81-.74s1.97.25,2.81.74Zm-5.23,8.54c.58.85,1.38,1.28,2.4,1.28s1.84-.43,2.43-1.29.88-2.04.88-3.55-.29-2.66-.87-3.51c-.58-.85-1.38-1.28-2.42-1.28s-1.84.43-2.42,1.28c-.58.85-.87,2.03-.87,3.54s.29,2.68.87,3.54Z"/><path class="cls-1" d="m253.19,59.76v.42h-3.66l-4.33-5.27-.82.94v3.6l1.57.31v.42h-5.08v-.42l1.59-.31v-14.77l-1.53-.56v-.27l3.24-1.03h.21v11.9l3.49-3.95c.29-.33.44-.59.44-.75,0-.13-.1-.22-.31-.29-.21-.07-.62-.14-1.23-.21v-.42h4.69v.42c-.85.15-1.42.3-1.72.44-.29.14-.6.39-.92.75l-2.36,2.76,4.98,5.98,1.76.31Z"/><path class="cls-1" d="m263.88,60.17h-4.83v-.4l1.46-.31v-14.81l-1.46-.54v-.27l3.2-1.03h.19v16.65l1.44.31v.4Z"/><path class="cls-1" d="m273.37,49.62c.84.5,1.5,1.18,1.98,2.06.47.88.71,1.86.71,2.95s-.24,2.07-.71,2.95c-.47.88-1.13,1.57-1.98,2.06s-1.78.74-2.81.74-1.97-.25-2.81-.74-1.5-1.18-1.98-2.06c-.47-.88-.71-1.86-.71-2.95s.24-2.07.71-2.95c.47-.88,1.13-1.57,1.98-2.06.84-.49,1.78-.74,2.81-.74s1.97.25,2.81.74Zm-5.23,8.54c.58.85,1.38,1.28,2.4,1.28s1.84-.43,2.43-1.29.88-2.04.88-3.55-.29-2.66-.87-3.51c-.58-.85-1.38-1.28-2.42-1.28s-1.84.43-2.42,1.28c-.58.85-.87,2.03-.87,3.54s.29,2.68.87,3.54Z"/><path class="cls-1" d="m277.98,50.41c-.12-.33-.28-.56-.46-.67-.18-.11-.53-.19-1.05-.23v-.42h5.19v.42c-.57.01-.96.06-1.15.14s-.29.2-.29.37.04.38.13.63l2.41,6.94h.08l2.26-6.48c.12-.38.19-.66.19-.84,0-.21-.09-.36-.28-.46-.19-.1-.59-.19-1.2-.29v-.42h4.25v.42c-.52.08-.9.18-1.16.3s-.45.27-.58.46c-.13.19-.26.47-.4.85l-3.26,9.27h-.92l-3.74-9.98Z"/><path class="cls-1" d="m290.48,53.73c-.01.1-.02.26-.02.48,0,1.53.31,2.69.92,3.47.61.78,1.51,1.17,2.7,1.17.68,0,1.32-.12,1.9-.37s1.06-.59,1.42-1.04l.25-.31.36.21-.13.29c-.36.85-.95,1.52-1.76,2.01-.81.49-1.72.73-2.74.73s-1.87-.23-2.62-.7c-.76-.47-1.35-1.12-1.77-1.97-.42-.84-.63-1.82-.63-2.92,0-1.16.23-2.19.7-3.09s1.12-1.6,1.97-2.09c.84-.49,1.82-.74,2.92-.74,1.37,0,2.42.4,3.15,1.2s1.11,1.98,1.14,3.52l-.15.13h-7.61Zm1.07-3.26c-.56.63-.9,1.52-1.02,2.68l5.46-.19c.04-.17.06-.45.06-.86,0-1.72-.76-2.57-2.28-2.57-.92,0-1.66.31-2.22.94Z"/><path class="cls-1" d="m306.76,49.24c.26.26.39.57.39.93,0,.33-.12.62-.34.85-.23.23-.52.35-.87.35s-.6-.13-.79-.4c-.13-.15-.23-.26-.32-.31s-.2-.08-.32-.08c-.17,0-.31.04-.44.12-.12.08-.26.21-.4.41-.24.32-.39.54-.46.65-.07.11-.12.24-.15.38v7.32l2.09.31v.42h-5.67v-.42l1.59-.31v-8.7l-1.55-.59v-.27l3.24-1.02h.21v2.28c.49-.74.98-1.3,1.47-1.69.5-.39.96-.59,1.39-.59.36,0,.67.13.93.39Z"/><path class="cls-1" d="m313.99,48.97c.45.06.81.15,1.08.26v2.91h-.44c-.21-1.76-1.03-2.64-2.45-2.64-.56,0-1,.15-1.33.46-.33.31-.49.72-.49,1.23,0,.39.1.72.3.99s.45.5.74.68.7.39,1.21.63c.64.29,1.15.56,1.54.82s.71.6.99,1.04c.28.44.42.99.42,1.64,0,1.03-.35,1.85-1.04,2.47-.69.61-1.63.92-2.81.92-.45,0-.94-.04-1.47-.13-.54-.08-1.01-.19-1.41-.33l-.13-3.39h.5c.1,1.06.37,1.86.82,2.41.45.54,1.07.82,1.86.82.63,0,1.13-.17,1.51-.52.38-.35.56-.82.56-1.4,0-.43-.1-.8-.31-1.1-.21-.3-.47-.54-.77-.73-.31-.19-.74-.42-1.3-.7-.63-.31-1.13-.58-1.51-.83-.38-.24-.7-.58-.96-.99s-.4-.93-.4-1.55c0-.98.34-1.73,1.01-2.26.68-.53,1.63-.79,2.88-.79.47,0,.94.03,1.39.09Z"/><path class="cls-1" d="m325.16,65.43c-.58-.12-1.08-.3-1.52-.55-.81-.49-1.21-1.16-1.21-2.01,0-.57.2-1.08.6-1.52.4-.44,1.06-.86,2-1.27-.46-.21-.81-.46-1.06-.75-.24-.29-.37-.61-.37-.96,0-.43.2-.88.61-1.33.4-.45,1.12-.84,2.15-1.16-.84-.22-1.52-.64-2.04-1.25-.52-.61-.78-1.34-.78-2.18,0-.68.18-1.3.53-1.84s.84-.97,1.46-1.28c.62-.31,1.31-.46,2.06-.46.92,0,1.74.22,2.45.67.21-.63.48-1.16.83-1.6.34-.44.76-.66,1.25-.66.33,0,.62.1.86.29s.36.45.36.75c0,.28-.09.51-.28.7-.19.19-.42.28-.7.28-.14,0-.25-.02-.32-.07-.08-.05-.16-.12-.26-.22-.14-.17-.3-.25-.48-.25-.17,0-.32.1-.46.31-.14.21-.25.46-.33.75.4.33.72.73.95,1.19.23.46.34.93.34,1.42,0,.61-.18,1.19-.53,1.74-.36.54-.85.99-1.47,1.35-.63.36-1.35.56-2.15.62-.57.04-1.09.19-1.56.44s-.7.54-.7.88c0,.4.3.71.91.92.61.21,1.45.41,2.54.61l1.05.21c1.03.24,1.73.59,2.1,1.07.37.47.55,1.01.55,1.61,0,.96-.38,1.76-1.15,2.38-.56.45-1.24.78-2.05,1-.81.22-1.62.33-2.43.33-.57,0-1.15-.06-1.73-.18Zm.55-5.14c-.49.22-.88.54-1.16.96-.29.42-.43.87-.43,1.36,0,.75.32,1.34.96,1.76.57.38,1.3.56,2.2.56s1.74-.17,2.41-.5c.81-.39,1.21-.98,1.21-1.76,0-.33-.09-.61-.28-.83-.19-.22-.5-.41-.95-.58-.45-.17-1.09-.33-1.92-.5-.84-.17-1.51-.33-2.03-.48Zm3.46-5.73c.31-.61.47-1.33.47-2.15,0-.75-.14-1.43-.43-2.04-.29-.61-.78-.91-1.5-.91s-1.26.33-1.57.98c-.31.66-.46,1.38-.46,2.18,0,.74.14,1.4.43,1.99.29.59.79.88,1.5.88s1.24-.31,1.56-.92Z"/><path class="cls-1" d="m334.44,59.67c-.47-.47-.7-1.09-.7-1.84,0-.61.18-1.14.55-1.58.37-.44.97-.83,1.8-1.16.83-.33,1.96-.66,3.38-.96v-2.05c0-.88-.12-1.5-.38-1.86-.25-.36-.68-.54-1.3-.54s-1.07.14-1.42.43-.52.67-.52,1.16c0,.13,0,.25.02.37s.02.24.02.37c0,.35-.1.64-.3.87s-.46.35-.78.35c-.28,0-.51-.09-.69-.27-.18-.18-.27-.43-.27-.73,0-.46.21-.93.62-1.42.41-.49.96-.91,1.64-1.26.84-.43,1.72-.65,2.66-.65.6,0,1.11.1,1.53.29.42.2.72.47.9.82.11.24.18.53.22.88.03.35.05.97.05,1.86v4.79c0,.68.05,1.15.16,1.39.1.24.31.37.62.37.19,0,.37-.04.52-.14s.32-.25.5-.47l.36.31c-.32.5-.65.86-.99,1.08-.34.22-.74.32-1.18.32-.56,0-.99-.15-1.3-.46-.31-.31-.5-.78-.57-1.42l-.06-.04c-.4.6-.9,1.07-1.49,1.41-.58.34-1.18.51-1.78.51-.74,0-1.34-.24-1.81-.71Zm4.01-.89c.4-.24.75-.59,1.02-1.04v-3.01c-1,.2-1.78.4-2.33.63-.55.22-.94.5-1.18.82s-.36.73-.36,1.21c0,.56.14.99.41,1.3.27.31.66.46,1.16.46.45,0,.87-.12,1.28-.37Z"/><path class="cls-1" d="m346.16,59.8c-.25-.24-.43-.53-.53-.89-.1-.36-.16-.85-.16-1.5v-7.59h-1.36l-.04-.33,3.01-3.14.38.04v2.7h2.99l-.17.73h-2.82v7.4c0,.5.01.86.04,1.08.03.22.08.39.15.51.22.39.57.59,1.05.59.28,0,.56-.08.85-.23s.53-.36.74-.63l.36.27c-.32.49-.74.87-1.25,1.15s-1.04.42-1.6.42c-.67,0-1.21-.2-1.63-.59Z"/><path class="cls-1" d="m363.66,59.76v.42h-5.12v-.42l1.57-.29v-6.15c0-.61-.02-1.1-.05-1.45-.04-.36-.1-.65-.2-.87-.26-.64-.81-.96-1.63-.96-.57,0-1.12.11-1.63.34-.52.23-.98.57-1.38,1.01v8.05l1.57.31v.42h-5.15v-.42l1.59-.31v-14.77l-1.55-.56v-.29l3.33-1h.21v7.8c.64-.56,1.33-.99,2.05-1.29.73-.3,1.44-.45,2.13-.45.56,0,1.05.11,1.49.33.43.22.75.53.94.92.11.22.18.52.22.89.03.37.05,1.06.05,2.08v6.36l1.57.29Z"/><path class="cls-1" d="m366.82,53.73c-.01.1-.02.26-.02.48,0,1.53.31,2.69.92,3.47.61.78,1.51,1.17,2.7,1.17.68,0,1.32-.12,1.9-.37s1.06-.59,1.42-1.04l.25-.31.36.21-.13.29c-.36.85-.95,1.52-1.76,2.01-.81.49-1.72.73-2.74.73s-1.87-.23-2.62-.7c-.76-.47-1.35-1.12-1.77-1.97-.42-.84-.63-1.82-.63-2.92,0-1.16.23-2.19.7-3.09s1.12-1.6,1.97-2.09c.84-.49,1.82-.74,2.92-.74,1.37,0,2.42.4,3.15,1.2s1.11,1.98,1.14,3.52l-.15.13h-7.61Zm1.07-3.26c-.56.63-.9,1.52-1.02,2.68l5.46-.19c.04-.17.06-.45.06-.86,0-1.72-.76-2.57-2.28-2.57-.92,0-1.66.31-2.22.94Z"/><path class="cls-1" d="m383.1,49.24c.26.26.39.57.39.93,0,.33-.12.62-.34.85-.23.23-.52.35-.87.35s-.6-.13-.79-.4c-.13-.15-.23-.26-.32-.31s-.2-.08-.32-.08c-.17,0-.31.04-.44.12-.12.08-.26.21-.4.41-.24.32-.39.54-.46.65-.07.11-.12.24-.15.38v7.32l2.09.31v.42h-5.67v-.42l1.59-.31v-8.7l-1.55-.59v-.27l3.24-1.02h.21v2.28c.49-.74.98-1.3,1.47-1.69.5-.39.96-.59,1.39-.59.36,0,.67.13.93.39Z"/><path class="cls-1" d="m384.64,57.91c.26-.28.61-.42,1.02-.42.45,0,.8.14,1.07.41.26.27.4.62.4,1.06,0,.4-.14.74-.41,1.01-.27.27-.62.41-1.06.41s-.76-.14-1.02-.42-.4-.61-.4-1c0-.42.13-.77.4-1.05Z"/></g><g><g id="_7VLbZp"><path class="cls-2" d="m0,37.99S0,21.7.03,12.98C.06,5.55,5.53.04,12.95.02c8.36-.03,16.72-.03,25.07,0,7.34.03,12.84,5.5,12.88,12.86.02,3.84.02,11.36.01,21.45,0,13.3,8.25,23.36,8.25,23.36l-19.1-7.92-12.84,8.28s-5.93-6.77-5.93-23.16c0-10.33,0-18.6-.02-22.2-.03-4.23-2.43-7.17-6.83-8.4-1.55-.43-3.21-.31-4.68.35-4.01,1.8-5.63,4.77-5.62,8.39.01,8.68.03,25.01.03,25.01l-4.19-.07Z"/></g><g><line class="cls-3" x1="17.06" y1="10.39" x2="17.06" y2="36.77"/><line class="cls-3" x1="12.55" y1="8.94" x2="12.55" y2="36.77"/><line class="cls-3" x1="8.03" y1="10.39" x2="8.03" y2="36.77"/></g></g></g></g></svg>